<?xml version="1.0" encoding="UTF-8" standalone="no"?>
<!DOCTYPE svg PUBLIC "-//W3C//DTD SVG 1.1//EN" "http://www.w3.org/Graphics/SVG/1.1/DTD/svg11.dtd">
<svg width="100%" height="100%" viewBox="0 0 700 109" version="1.1" xmlns="http://www.w3.org/2000/svg" xmlns:xlink="http://www.w3.org/1999/xlink" xml:space="preserve" xmlns:serif="http://www.serif.com/" style="fill-rule:evenodd;clip-rule:evenodd;stroke-linecap:round;stroke-linejoin:round;">
    <rect id="Artboard1" x="0" y="0" width="700" height="108.963" style="fill:none;"/>
    <path d="M94.287,73.879L94.287,34.991C94.285,33.286 93.835,31.611 92.982,30.135C92.129,28.659 90.902,27.433 89.426,26.581L55.398,7.136C53.92,6.283 52.244,5.834 50.537,5.834C48.83,5.834 47.154,6.283 45.676,7.136L11.648,26.581C10.171,27.433 8.945,28.659 8.092,30.135C7.239,31.611 6.789,33.286 6.787,34.991L6.787,73.879C6.789,75.584 7.239,77.259 8.092,78.735C8.945,80.211 10.171,81.437 11.648,82.289L45.676,101.733C47.154,102.587 48.83,103.036 50.537,103.036C52.244,103.036 53.92,102.587 55.398,101.733L89.426,82.289C90.902,81.437 92.129,80.211 92.982,78.735C93.835,77.259 94.285,75.584 94.287,73.879Z" style="fill:none;fill-rule:nonzero;stroke:rgb(150,193,184);stroke-width:8.33px;"/>
    <path d="M28.662,16.567L50.537,29.206L72.412,16.567" style="fill:none;fill-rule:nonzero;stroke:rgb(150,193,184);stroke-width:8.33px;"/>
    <path d="M28.662,92.303L28.662,67.074L6.787,54.435" style="fill:none;fill-rule:nonzero;stroke:rgb(150,193,184);stroke-width:8.33px;"/>
    <path d="M94.287,54.435L72.412,67.074L72.412,92.303" style="fill:none;fill-rule:nonzero;stroke:rgb(150,193,184);stroke-width:8.33px;"/>
    <path d="M8.101,29.935L50.539,54.483L92.976,29.935" style="fill:none;fill-rule:nonzero;stroke:rgb(150,193,184);stroke-width:8.33px;"/>
    <path d="M50.537,103.435L50.537,54.435" style="fill:none;fill-rule:nonzero;stroke:rgb(150,193,184);stroke-width:8.33px;"/>
    <path d="M139.5,80.552L127.95,60.152L123,60.152L123,80.552L112.5,80.552L112.5,28.202L132.15,28.202C136.2,28.202 139.65,28.927 142.5,30.377C145.35,31.777 147.475,33.702 148.875,36.152C150.325,38.552 151.05,41.252 151.05,44.252C151.05,47.702 150.05,50.827 148.05,53.627C146.05,56.377 143.075,58.277 139.125,59.327L151.65,80.552L139.5,80.552ZM123,52.277L131.775,52.277C134.625,52.277 136.75,51.602 138.15,50.252C139.55,48.852 140.25,46.927 140.25,44.477C140.25,42.077 139.55,40.227 138.15,38.927C136.75,37.577 134.625,36.902 131.775,36.902L123,36.902L123,52.277ZM192.647,70.577L171.797,70.577L168.347,80.552L157.322,80.552L176.147,28.127L188.372,28.127L207.197,80.552L196.097,80.552L192.647,70.577ZM189.797,62.177L182.222,40.277L174.647,62.177L189.797,62.177ZM255.858,28.202L238.158,62.327L238.158,80.552L227.658,80.552L227.658,62.327L209.883,28.202L221.733,28.202L232.983,52.127L244.158,28.202L255.858,28.202ZM306.689,80.552L296.189,80.552L272.414,44.627L272.414,80.552L261.914,80.552L261.914,28.127L272.414,28.127L296.189,64.127L296.189,28.127L306.689,28.127L306.689,80.552ZM341.365,81.077C336.465,81.077 331.965,79.927 327.865,77.627C323.765,75.327 320.515,72.152 318.115,68.102C315.715,64.002 314.515,59.377 314.515,54.227C314.515,49.127 315.715,44.552 318.115,40.502C320.515,36.402 323.765,33.202 327.865,30.902C331.965,28.602 336.465,27.452 341.365,27.452C346.315,27.452 350.815,28.602 354.865,30.902C358.965,33.202 362.19,36.402 364.54,40.502C366.94,44.552 368.14,49.127 368.14,54.227C368.14,59.377 366.94,64.002 364.54,68.102C362.19,72.152 358.965,75.327 354.865,77.627C350.765,79.927 346.265,81.077 341.365,81.077ZM341.365,71.702C344.515,71.702 347.29,71.002 349.69,69.602C352.09,68.152 353.965,66.102 355.315,63.452C356.665,60.802 357.34,57.727 357.34,54.227C357.34,50.727 356.665,47.677 355.315,45.077C353.965,42.427 352.09,40.402 349.69,39.002C347.29,37.602 344.515,36.902 341.365,36.902C338.215,36.902 335.415,37.602 332.965,39.002C330.565,40.402 328.69,42.427 327.34,45.077C325.99,47.677 325.315,50.727 325.315,54.227C325.315,57.727 325.99,60.802 327.34,63.452C328.69,66.102 330.565,68.152 332.965,69.602C335.415,71.002 338.215,71.702 341.365,71.702ZM402.952,80.552L391.402,60.152L386.452,60.152L386.452,80.552L375.952,80.552L375.952,28.202L395.602,28.202C399.652,28.202 403.102,28.927 405.952,30.377C408.802,31.777 410.927,33.702 412.327,36.152C413.777,38.552 414.502,41.252 414.502,44.252C414.502,47.702 413.502,50.827 411.502,53.627C409.502,56.377 406.527,58.277 402.577,59.327L415.102,80.552L402.952,80.552ZM386.452,52.277L395.227,52.277C398.077,52.277 400.202,51.602 401.602,50.252C403.002,48.852 403.702,46.927 403.702,44.477C403.702,42.077 403.002,40.227 401.602,38.927C400.202,37.577 398.077,36.902 395.227,36.902L386.452,36.902L386.452,52.277ZM478.32,43.952C477.12,41.752 475.47,40.077 473.37,38.927C471.27,37.777 468.82,37.202 466.02,37.202C462.92,37.202 460.17,37.902 457.77,39.302C455.37,40.702 453.495,42.702 452.145,45.302C450.795,47.902 450.12,50.902 450.12,54.302C450.12,57.802 450.795,60.852 452.145,63.452C453.545,66.052 455.47,68.052 457.92,69.452C460.37,70.852 463.22,71.552 466.47,71.552C470.47,71.552 473.745,70.502 476.295,68.402C478.845,66.252 480.52,63.277 481.32,59.477L463.32,59.477L463.32,51.452L491.67,51.452L491.67,60.602C490.97,64.252 489.47,67.627 487.17,70.727C484.87,73.827 481.895,76.327 478.245,78.227C474.645,80.077 470.595,81.002 466.095,81.002C461.045,81.002 456.47,79.877 452.37,77.627C448.32,75.327 445.12,72.152 442.77,68.102C440.47,64.052 439.32,59.452 439.32,54.302C439.32,49.152 440.47,44.552 442.77,40.502C445.12,36.402 448.32,33.227 452.37,30.977C456.47,28.677 461.02,27.527 466.02,27.527C471.92,27.527 477.045,28.977 481.395,31.877C485.745,34.727 488.745,38.752 490.395,43.952L478.32,43.952ZM526.438,80.552L514.888,60.152L509.938,60.152L509.938,80.552L499.438,80.552L499.438,28.202L519.088,28.202C523.138,28.202 526.588,28.927 529.438,30.377C532.288,31.777 534.413,33.702 535.813,36.152C537.263,38.552 537.988,41.252 537.988,44.252C537.988,47.702 536.988,50.827 534.988,53.627C532.988,56.377 530.012,58.277 526.063,59.327L538.587,80.552L526.438,80.552ZM509.938,52.277L518.713,52.277C521.563,52.277 523.688,51.602 525.088,50.252C526.488,48.852 527.188,46.927 527.188,44.477C527.188,42.077 526.488,40.227 525.088,38.927C523.688,37.577 521.563,36.902 518.713,36.902L509.938,36.902L509.938,52.277ZM571.783,81.077C566.883,81.077 562.383,79.927 558.283,77.627C554.183,75.327 550.933,72.152 548.533,68.102C546.133,64.002 544.933,59.377 544.933,54.227C544.933,49.127 546.133,44.552 548.533,40.502C550.933,36.402 554.183,33.202 558.283,30.902C562.383,28.602 566.883,27.452 571.783,27.452C576.733,27.452 581.233,28.602 585.283,30.902C589.383,33.202 592.608,36.402 594.958,40.502C597.358,44.552 598.558,49.127 598.558,54.227C598.558,59.377 597.358,64.002 594.958,68.102C592.608,72.152 589.383,75.327 585.283,77.627C581.183,79.927 576.683,81.077 571.783,81.077ZM571.783,71.702C574.933,71.702 577.708,71.002 580.108,69.602C582.508,68.152 584.383,66.102 585.733,63.452C587.083,60.802 587.758,57.727 587.758,54.227C587.758,50.727 587.083,47.677 585.733,45.077C584.383,42.427 582.508,40.402 580.108,39.002C577.708,37.602 574.933,36.902 571.783,36.902C568.633,36.902 565.833,37.602 563.383,39.002C560.983,40.402 559.108,42.427 557.758,45.077C556.408,47.677 555.733,50.727 555.733,54.227C555.733,57.727 556.408,60.802 557.758,63.452C559.108,66.102 560.983,68.152 563.383,69.602C565.833,71.002 568.633,71.702 571.783,71.702ZM616.721,28.202L616.721,60.602C616.721,64.152 617.646,66.877 619.496,68.777C621.346,70.627 623.946,71.552 627.296,71.552C630.696,71.552 633.321,70.627 635.171,68.777C637.021,66.877 637.946,64.152 637.946,60.602L637.946,28.202L648.521,28.202L648.521,60.527C648.521,64.977 647.546,68.752 645.596,71.852C643.696,74.902 641.121,77.202 637.871,78.752C634.671,80.302 631.096,81.077 627.146,81.077C623.246,81.077 619.696,80.302 616.496,78.752C613.346,77.202 610.846,74.902 608.996,71.852C607.146,68.752 606.221,64.977 606.221,60.527L606.221,28.202L616.721,28.202ZM696.842,44.402C696.842,47.202 696.167,49.827 694.817,52.277C693.517,54.727 691.442,56.702 688.592,58.202C685.792,59.702 682.242,60.452 677.942,60.452L669.167,60.452L669.167,80.552L658.667,80.552L658.667,28.202L677.942,28.202C681.992,28.202 685.442,28.902 688.292,30.302C691.142,31.702 693.267,33.627 694.667,36.077C696.117,38.527 696.842,41.302 696.842,44.402ZM677.492,51.977C680.392,51.977 682.542,51.327 683.942,50.027C685.342,48.677 686.042,46.802 686.042,44.402C686.042,39.302 683.192,36.752 677.492,36.752L669.167,36.752L669.167,51.977L677.492,51.977Z" style="fill:rgb(150,193,184);fill-rule:nonzero;"/>
</svg>
