<?xml version="1.0" encoding="UTF-8" standalone="no"?>
<!DOCTYPE svg PUBLIC "-//W3C//DTD SVG 1.1//EN" "http://www.w3.org/Graphics/SVG/1.1/DTD/svg11.dtd">
<svg width="100%" height="100%" viewBox="0 0 207 48" version="1.1" xmlns="http://www.w3.org/2000/svg" xmlns:xlink="http://www.w3.org/1999/xlink" xml:space="preserve" xmlns:serif="http://www.serif.com/" style="fill-rule:evenodd;clip-rule:evenodd;stroke-linejoin:round;stroke-miterlimit:2;">
    <path d="M0,21.637L35.286,0.364L18.571,45.273L14.857,26.364L0,21.637Z" style="fill:rgb(150,193,184);fill-rule:nonzero;"/>
    <path d="M57.226,10.248C58.986,10.248 60.53,10.592 61.858,11.28C63.202,11.968 64.234,12.952 64.954,14.232C65.69,15.496 66.058,16.968 66.058,18.648C66.058,20.328 65.69,21.8 64.954,23.064C64.234,24.312 63.202,25.28 61.858,25.968C60.53,26.656 58.986,27 57.226,27L51.37,27L51.37,10.248L57.226,10.248ZM57.106,24.144C58.866,24.144 60.226,23.664 61.186,22.704C62.146,21.744 62.626,20.392 62.626,18.648C62.626,16.904 62.146,15.544 61.186,14.568C60.226,13.576 58.866,13.08 57.106,13.08L54.73,13.08L54.73,24.144L57.106,24.144ZM74.477,27.216C73.197,27.216 72.045,26.936 71.021,26.376C69.997,25.8 69.189,24.992 68.597,23.952C68.021,22.912 67.733,21.712 67.733,20.352C67.733,18.992 68.029,17.792 68.621,16.752C69.229,15.712 70.053,14.912 71.093,14.352C72.133,13.776 73.293,13.488 74.573,13.488C75.853,13.488 77.013,13.776 78.053,14.352C79.093,14.912 79.909,15.712 80.501,16.752C81.109,17.792 81.413,18.992 81.413,20.352C81.413,21.712 81.101,22.912 80.477,23.952C79.869,24.992 79.037,25.8 77.981,26.376C76.941,26.936 75.773,27.216 74.477,27.216ZM74.477,24.288C75.085,24.288 75.653,24.144 76.181,23.856C76.725,23.552 77.157,23.104 77.477,22.512C77.797,21.92 77.957,21.2 77.957,20.352C77.957,19.088 77.621,18.12 76.949,17.448C76.293,16.76 75.485,16.416 74.525,16.416C73.565,16.416 72.757,16.76 72.101,17.448C71.461,18.12 71.141,19.088 71.141,20.352C71.141,21.616 71.453,22.592 72.077,23.28C72.717,23.952 73.517,24.288 74.477,24.288ZM91.246,13.512C92.83,13.512 94.11,14.016 95.086,15.024C96.062,16.016 96.55,17.408 96.55,19.2L96.55,27L93.19,27L93.19,19.656C93.19,18.6 92.926,17.792 92.398,17.232C91.87,16.656 91.15,16.368 90.238,16.368C89.31,16.368 88.574,16.656 88.03,17.232C87.502,17.792 87.238,18.6 87.238,19.656L87.238,27L83.878,27L83.878,13.704L87.238,13.704L87.238,15.36C87.686,14.784 88.254,14.336 88.942,14.016C89.646,13.68 90.414,13.512 91.246,13.512ZM107.113,13.512C108.697,13.512 109.977,14.016 110.953,15.024C111.929,16.016 112.417,17.408 112.417,19.2L112.417,27L109.057,27L109.057,19.656C109.057,18.6 108.793,17.792 108.265,17.232C107.737,16.656 107.017,16.368 106.105,16.368C105.177,16.368 104.441,16.656 103.897,17.232C103.369,17.792 103.105,18.6 103.105,19.656L103.105,27L99.745,27L99.745,13.704L103.105,13.704L103.105,15.36C103.553,14.784 104.121,14.336 104.809,14.016C105.513,13.68 106.281,13.512 107.113,13.512ZM127.972,20.064C127.972,20.544 127.94,20.976 127.876,21.36L118.156,21.36C118.236,22.32 118.572,23.072 119.164,23.616C119.756,24.16 120.484,24.432 121.348,24.432C122.596,24.432 123.484,23.896 124.012,22.824L127.636,22.824C127.252,24.104 126.516,25.16 125.428,25.992C124.34,26.808 123.004,27.216 121.42,27.216C120.14,27.216 118.988,26.936 117.964,26.376C116.956,25.8 116.164,24.992 115.588,23.952C115.028,22.912 114.748,21.712 114.748,20.352C114.748,18.976 115.028,17.768 115.588,16.728C116.148,15.688 116.932,14.888 117.94,14.328C118.948,13.768 120.108,13.488 121.42,13.488C122.684,13.488 123.812,13.76 124.804,14.304C125.812,14.848 126.588,15.624 127.132,16.632C127.692,17.624 127.972,18.768 127.972,20.064ZM124.492,19.104C124.476,18.24 124.164,17.552 123.556,17.04C122.948,16.512 122.204,16.248 121.324,16.248C120.492,16.248 119.788,16.504 119.212,17.016C118.652,17.512 118.308,18.208 118.18,19.104L124.492,19.104ZM133.785,9.24L133.785,27L130.425,27L130.425,9.24L133.785,9.24ZM140.465,9.24L140.465,27L137.105,27L137.105,9.24L140.465,9.24ZM156.504,13.704L148.272,33.288L144.696,33.288L147.576,26.664L142.248,13.704L146.016,13.704L149.448,22.992L152.928,13.704L156.504,13.704ZM176.25,15.432C176.25,16.328 176.034,17.168 175.602,17.952C175.186,18.736 174.522,19.368 173.61,19.848C172.714,20.328 171.578,20.568 170.202,20.568L167.394,20.568L167.394,27L164.034,27L164.034,10.248L170.202,10.248C171.498,10.248 172.602,10.472 173.514,10.92C174.426,11.368 175.106,11.984 175.554,12.768C176.018,13.552 176.25,14.44 176.25,15.432ZM170.058,17.856C170.986,17.856 171.674,17.648 172.122,17.232C172.57,16.8 172.794,16.2 172.794,15.432C172.794,13.8 171.882,12.984 170.058,12.984L167.394,12.984L167.394,17.856L170.058,17.856ZM181.996,24.336L187.516,24.336L187.516,27L178.636,27L178.636,10.248L181.996,10.248L181.996,24.336ZM188.836,18.6C188.836,16.952 189.204,15.48 189.94,14.184C190.692,12.872 191.708,11.856 192.988,11.136C194.284,10.4 195.732,10.032 197.332,10.032C199.204,10.032 200.844,10.512 202.252,11.472C203.66,12.432 204.644,13.76 205.204,15.456L201.34,15.456C200.956,14.656 200.412,14.056 199.708,13.656C199.02,13.256 198.22,13.056 197.308,13.056C196.332,13.056 195.46,13.288 194.692,13.752C193.94,14.2 193.348,14.84 192.916,15.672C192.5,16.504 192.292,17.48 192.292,18.6C192.292,19.704 192.5,20.68 192.916,21.528C193.348,22.36 193.94,23.008 194.692,23.472C195.46,23.92 196.332,24.144 197.308,24.144C198.22,24.144 199.02,23.944 199.708,23.544C200.412,23.128 200.956,22.52 201.34,21.72L205.204,21.72C204.644,23.432 203.66,24.768 202.252,25.728C200.86,26.672 199.22,27.144 197.332,27.144C195.732,27.144 194.284,26.784 192.988,26.064C191.708,25.328 190.692,24.312 189.94,23.016C189.204,21.72 188.836,20.248 188.836,18.6Z" style="fill:rgb(150,193,184);fill-rule:nonzero;"/>
</svg>
