<?xml version="1.0" encoding="UTF-8" standalone="no"?>
<!DOCTYPE svg PUBLIC "-//W3C//DTD SVG 1.1//EN" "http://www.w3.org/Graphics/SVG/1.1/DTD/svg11.dtd">
<svg width="100%" height="100%" viewBox="0 0 530 89" version="1.1" xmlns="http://www.w3.org/2000/svg" xmlns:xlink="http://www.w3.org/1999/xlink" xml:space="preserve" xmlns:serif="http://www.serif.com/" style="fill-rule:evenodd;clip-rule:evenodd;stroke-linejoin:round;stroke-miterlimit:2;">
    <rect id="Artboard1" x="0" y="0" width="529.277" height="88.823" style="fill:none;"/>
    <path d="M92.153,54.725L47.778,86.975L3.403,54.725C2.808,54.288 2.367,53.673 2.143,52.97C1.918,52.266 1.922,51.51 2.153,50.809L7.237,35.059L17.403,3.767C17.502,3.512 17.659,3.284 17.862,3.1C18.192,2.799 18.623,2.631 19.07,2.631C19.517,2.631 19.948,2.799 20.278,3.1C20.492,3.307 20.65,3.565 20.737,3.85L30.903,35.059L64.653,35.059L74.82,3.767C74.919,3.512 75.076,3.284 75.278,3.1C75.609,2.799 76.039,2.631 76.487,2.631C76.934,2.631 77.365,2.799 77.695,3.1C77.909,3.307 78.067,3.565 78.153,3.85L88.32,35.142L93.612,50.809C93.822,51.531 93.794,52.303 93.532,53.008C93.269,53.714 92.785,54.316 92.153,54.725Z" style="fill:rgb(150,193,184);fill-rule:nonzero;"/>
    <path d="M181.943,20.109L167.318,72.459L154.943,72.459L145.118,35.184L134.843,72.459L122.543,72.534L108.443,20.109L119.693,20.109L128.918,60.759L139.568,20.109L151.268,20.109L161.318,60.534L170.618,20.109L181.943,20.109ZM207.25,73.134C203.25,73.134 199.65,72.259 196.45,70.509C193.25,68.709 190.725,66.184 188.875,62.934C187.075,59.684 186.175,55.934 186.175,51.684C186.175,47.434 187.1,43.684 188.95,40.434C190.85,37.184 193.425,34.684 196.675,32.934C199.925,31.134 203.55,30.234 207.55,30.234C211.55,30.234 215.175,31.134 218.425,32.934C221.675,34.684 224.225,37.184 226.075,40.434C227.975,43.684 228.925,47.434 228.925,51.684C228.925,55.934 227.95,59.684 226,62.934C224.1,66.184 221.5,68.709 218.2,70.509C214.95,72.259 211.3,73.134 207.25,73.134ZM207.25,63.984C209.15,63.984 210.925,63.534 212.575,62.634C214.275,61.684 215.625,60.284 216.625,58.434C217.625,56.584 218.125,54.334 218.125,51.684C218.125,47.734 217.075,44.709 214.975,42.609C212.925,40.459 210.4,39.384 207.4,39.384C204.4,39.384 201.875,40.459 199.825,42.609C197.825,44.709 196.825,47.734 196.825,51.684C196.825,55.634 197.8,58.684 199.75,60.834C201.75,62.934 204.25,63.984 207.25,63.984ZM247.127,16.959L247.127,72.459L236.627,72.459L236.627,16.959L247.127,16.959ZM276.55,39.534L269.275,39.534L269.275,72.459L258.625,72.459L258.625,39.534L253.9,39.534L253.9,30.909L258.625,30.909L258.625,28.809C258.625,23.709 260.075,19.959 262.975,17.559C265.875,15.159 270.25,14.034 276.1,14.184L276.1,23.034C273.55,22.984 271.775,23.409 270.775,24.309C269.775,25.209 269.275,26.834 269.275,29.184L269.275,30.909L276.55,30.909L276.55,39.534ZM302.405,39.534L295.13,39.534L295.13,72.459L284.48,72.459L284.48,39.534L279.755,39.534L279.755,30.909L284.48,30.909L284.48,28.809C284.48,23.709 285.93,19.959 288.83,17.559C291.73,15.159 296.105,14.034 301.955,14.184L301.955,23.034C299.405,22.984 297.63,23.409 296.63,24.309C295.63,25.209 295.13,26.834 295.13,29.184L295.13,30.909L302.405,30.909L302.405,39.534ZM341.16,41.259L341.16,50.109L309.36,50.109L309.36,41.259L341.16,41.259ZM382.485,72.459L363.435,49.134L363.435,72.459L352.935,72.459L352.935,20.109L363.435,20.109L363.435,43.584L382.485,20.109L395.16,20.109L373.56,46.059L395.76,72.459L382.485,72.459ZM421.117,73.134C417.117,73.134 413.517,72.259 410.317,70.509C407.117,68.709 404.592,66.184 402.742,62.934C400.942,59.684 400.042,55.934 400.042,51.684C400.042,47.434 400.967,43.684 402.817,40.434C404.717,37.184 407.292,34.684 410.542,32.934C413.792,31.134 417.417,30.234 421.417,30.234C425.417,30.234 429.042,31.134 432.292,32.934C435.542,34.684 438.092,37.184 439.942,40.434C441.842,43.684 442.792,47.434 442.792,51.684C442.792,55.934 441.817,59.684 439.867,62.934C437.967,66.184 435.367,68.709 432.067,70.509C428.817,72.259 425.167,73.134 421.117,73.134ZM421.117,63.984C423.017,63.984 424.792,63.534 426.442,62.634C428.142,61.684 429.492,60.284 430.492,58.434C431.492,56.584 431.992,54.334 431.992,51.684C431.992,47.734 430.942,44.709 428.842,42.609C426.792,40.459 424.267,39.384 421.267,39.384C418.267,39.384 415.742,40.459 413.692,42.609C411.692,44.709 410.692,47.734 410.692,51.684C410.692,55.634 411.667,58.684 413.617,60.834C415.617,62.934 418.117,63.984 421.117,63.984ZM466.394,73.134C462.994,73.134 459.944,72.534 457.244,71.334C454.544,70.084 452.394,68.409 450.794,66.309C449.244,64.209 448.394,61.884 448.244,59.334L458.819,59.334C459.019,60.934 459.794,62.259 461.144,63.309C462.544,64.359 464.269,64.884 466.319,64.884C468.319,64.884 469.869,64.484 470.969,63.684C472.119,62.884 472.694,61.859 472.694,60.609C472.694,59.259 471.994,58.259 470.594,57.609C469.244,56.909 467.069,56.159 464.069,55.359C460.969,54.609 458.419,53.834 456.419,53.034C454.469,52.234 452.769,51.009 451.319,49.359C449.919,47.709 449.219,45.484 449.219,42.684C449.219,40.384 449.869,38.284 451.169,36.384C452.519,34.484 454.419,32.984 456.869,31.884C459.369,30.784 462.294,30.234 465.644,30.234C470.594,30.234 474.544,31.484 477.494,33.984C480.444,36.434 482.069,39.759 482.369,43.959L472.319,43.959C472.169,42.309 471.469,41.009 470.219,40.059C469.019,39.059 467.394,38.559 465.344,38.559C463.444,38.559 461.969,38.909 460.919,39.609C459.919,40.309 459.419,41.284 459.419,42.534C459.419,43.934 460.119,45.009 461.519,45.759C462.919,46.459 465.094,47.184 468.044,47.934C471.044,48.684 473.519,49.459 475.469,50.259C477.419,51.059 479.094,52.309 480.494,54.009C481.944,55.659 482.694,57.859 482.744,60.609C482.744,63.009 482.069,65.159 480.719,67.059C479.419,68.959 477.519,70.459 475.019,71.559C472.569,72.609 469.694,73.134 466.394,73.134ZM507.263,73.134C503.863,73.134 500.813,72.534 498.113,71.334C495.413,70.084 493.263,68.409 491.663,66.309C490.113,64.209 489.263,61.884 489.113,59.334L499.688,59.334C499.888,60.934 500.663,62.259 502.013,63.309C503.413,64.359 505.138,64.884 507.188,64.884C509.188,64.884 510.738,64.484 511.838,63.684C512.988,62.884 513.563,61.859 513.563,60.609C513.563,59.259 512.863,58.259 511.463,57.609C510.113,56.909 507.938,56.159 504.938,55.359C501.838,54.609 499.288,53.834 497.288,53.034C495.338,52.234 493.638,51.009 492.188,49.359C490.788,47.709 490.088,45.484 490.088,42.684C490.088,40.384 490.738,38.284 492.038,36.384C493.388,34.484 495.288,32.984 497.738,31.884C500.238,30.784 503.163,30.234 506.513,30.234C511.463,30.234 515.413,31.484 518.363,33.984C521.313,36.434 522.938,39.759 523.238,43.959L513.188,43.959C513.038,42.309 512.338,41.009 511.088,40.059C509.888,39.059 508.263,38.559 506.213,38.559C504.313,38.559 502.838,38.909 501.788,39.609C500.788,40.309 500.288,41.284 500.288,42.534C500.288,43.934 500.988,45.009 502.388,45.759C503.788,46.459 505.963,47.184 508.913,47.934C511.913,48.684 514.388,49.459 516.338,50.259C518.288,51.059 519.963,52.309 521.363,54.009C522.813,55.659 523.564,57.859 523.614,60.609C523.614,63.009 522.938,65.159 521.588,67.059C520.288,68.959 518.388,70.459 515.888,71.559C513.438,72.609 510.563,73.134 507.263,73.134Z" style="fill:rgb(150,193,184);fill-rule:nonzero;"/>
</svg>
