<?xml version="1.0" encoding="UTF-8" standalone="no"?>
<!DOCTYPE svg PUBLIC "-//W3C//DTD SVG 1.1//EN" "http://www.w3.org/Graphics/SVG/1.1/DTD/svg11.dtd">
<svg width="100%" height="100%" viewBox="0 0 134 28" version="1.1" xmlns="http://www.w3.org/2000/svg" xmlns:xlink="http://www.w3.org/1999/xlink" xml:space="preserve" xmlns:serif="http://www.serif.com/" style="fill-rule:evenodd;clip-rule:evenodd;stroke-linecap:round;stroke-linejoin:round;">
    <path d="M24.5,18.667L24.5,9.333C24.5,8.924 24.392,8.522 24.187,8.168C23.982,7.814 23.688,7.52 23.333,7.315L15.167,2.648C14.812,2.444 14.41,2.336 14,2.336C13.59,2.336 13.188,2.444 12.833,2.648L4.667,7.315C4.312,7.52 4.018,7.814 3.813,8.168C3.608,8.522 3.5,8.924 3.5,9.333L3.5,18.667C3.5,19.076 3.608,19.478 3.813,19.832C4.018,20.186 4.312,20.48 4.667,20.685L12.833,25.352C13.188,25.556 13.59,25.664 14,25.664C14.41,25.664 14.812,25.556 15.167,25.352L23.333,20.685C23.688,20.48 23.982,20.186 24.187,19.832C24.392,19.478 24.5,19.076 24.5,18.667Z" style="fill:none;fill-rule:nonzero;stroke:rgb(150,193,184);stroke-width:2px;"/>
    <path d="M3.815,8.12L14,14.012L24.185,8.12" style="fill:none;fill-rule:nonzero;stroke:rgb(150,193,184);stroke-width:2px;"/>
    <path d="M14,25.76L14,14" style="fill:none;fill-rule:nonzero;stroke:rgb(150,193,184);stroke-width:2px;"/>
    <path d="M32.692,7.4L35.032,7.4L35.032,18.02L41.62,18.02L41.62,20L32.692,20L32.692,7.4ZM52.2,15.248C52.2,15.404 52.188,15.626 52.164,15.914L44.622,15.914C44.754,16.622 45.096,17.186 45.648,17.606C46.212,18.014 46.908,18.218 47.736,18.218C48.792,18.218 49.661,17.87 50.346,17.174L51.551,18.56C51.12,19.076 50.574,19.466 49.914,19.73C49.254,19.994 48.51,20.126 47.682,20.126C46.626,20.126 45.696,19.916 44.892,19.496C44.088,19.076 43.464,18.494 43.02,17.75C42.588,16.994 42.372,16.142 42.372,15.194C42.372,14.258 42.582,13.418 43.002,12.674C43.434,11.918 44.028,11.33 44.783,10.91C45.539,10.49 46.392,10.28 47.34,10.28C48.276,10.28 49.109,10.49 49.842,10.91C50.586,11.318 51.161,11.9 51.57,12.656C51.99,13.4 52.2,14.264 52.2,15.248ZM47.34,12.08C46.62,12.08 46.008,12.296 45.504,12.728C45.012,13.148 44.712,13.712 44.603,14.42L50.058,14.42C49.962,13.724 49.667,13.16 49.176,12.728C48.684,12.296 48.072,12.08 47.34,12.08ZM63.901,10.388L63.901,18.542C63.901,21.926 62.173,23.618 58.717,23.618C57.793,23.618 56.917,23.498 56.089,23.258C55.261,23.03 54.577,22.694 54.037,22.25L55.045,20.558C55.465,20.906 55.993,21.182 56.629,21.386C57.277,21.602 57.931,21.71 58.591,21.71C59.647,21.71 60.421,21.47 60.913,20.99C61.405,20.51 61.651,19.778 61.651,18.794L61.651,18.29C61.267,18.71 60.799,19.028 60.247,19.244C59.695,19.46 59.089,19.568 58.429,19.568C57.517,19.568 56.689,19.376 55.945,18.992C55.213,18.596 54.631,18.044 54.199,17.336C53.779,16.628 53.569,15.818 53.569,14.906C53.569,13.994 53.779,13.19 54.199,12.494C54.631,11.786 55.213,11.24 55.945,10.856C56.689,10.472 57.517,10.28 58.429,10.28C59.125,10.28 59.755,10.394 60.319,10.622C60.895,10.85 61.375,11.198 61.759,11.666L61.759,10.388L63.901,10.388ZM58.771,17.66C59.623,17.66 60.319,17.408 60.859,16.904C61.411,16.388 61.687,15.722 61.687,14.906C61.687,14.102 61.411,13.448 60.859,12.944C60.319,12.44 59.623,12.188 58.771,12.188C57.907,12.188 57.199,12.44 56.647,12.944C56.107,13.448 55.837,14.102 55.837,14.906C55.837,15.722 56.107,16.388 56.647,16.904C57.199,17.408 57.907,17.66 58.771,17.66ZM69.001,11.792C69.649,10.784 70.789,10.28 72.421,10.28L72.421,12.422C72.229,12.386 72.055,12.368 71.899,12.368C71.023,12.368 70.339,12.626 69.847,13.142C69.355,13.646 69.109,14.378 69.109,15.338L69.109,20L66.859,20L66.859,10.388L69.001,10.388L69.001,11.792ZM78.562,20.126C77.59,20.126 76.714,19.916 75.934,19.496C75.154,19.076 74.542,18.494 74.098,17.75C73.666,16.994 73.45,16.142 73.45,15.194C73.45,14.246 73.666,13.4 74.098,12.656C74.542,11.912 75.154,11.33 75.934,10.91C76.714,10.49 77.59,10.28 78.562,10.28C79.546,10.28 80.428,10.49 81.208,10.91C81.988,11.33 82.594,11.912 83.026,12.656C83.47,13.4 83.692,14.246 83.692,15.194C83.692,16.142 83.47,16.994 83.026,17.75C82.594,18.494 81.988,19.076 81.208,19.496C80.428,19.916 79.546,20.126 78.562,20.126ZM78.562,18.2C79.39,18.2 80.074,17.924 80.614,17.372C81.154,16.82 81.424,16.094 81.424,15.194C81.424,14.294 81.154,13.568 80.614,13.016C80.074,12.464 79.39,12.188 78.562,12.188C77.734,12.188 77.05,12.464 76.51,13.016C75.982,13.568 75.718,14.294 75.718,15.194C75.718,16.094 75.982,16.82 76.51,17.372C77.05,17.924 77.734,18.2 78.562,18.2ZM88.813,20.126C88.033,20.126 87.271,20.024 86.527,19.82C85.783,19.616 85.189,19.358 84.745,19.046L85.609,17.336C86.041,17.624 86.557,17.858 87.157,18.038C87.769,18.206 88.369,18.29 88.957,18.29C90.301,18.29 90.973,17.936 90.973,17.228C90.973,16.892 90.799,16.658 90.451,16.526C90.115,16.394 89.569,16.268 88.813,16.148C88.021,16.028 87.373,15.89 86.869,15.734C86.377,15.578 85.945,15.308 85.573,14.924C85.213,14.528 85.033,13.982 85.033,13.286C85.033,12.374 85.411,11.648 86.167,11.108C86.935,10.556 87.967,10.28 89.263,10.28C89.923,10.28 90.583,10.358 91.243,10.514C91.903,10.658 92.443,10.856 92.863,11.108L91.999,12.818C91.183,12.338 90.265,12.098 89.245,12.098C88.585,12.098 88.081,12.2 87.733,12.404C87.397,12.596 87.229,12.854 87.229,13.178C87.229,13.538 87.409,13.796 87.769,13.952C88.141,14.096 88.711,14.234 89.479,14.366C90.247,14.486 90.877,14.624 91.369,14.78C91.861,14.936 92.281,15.2 92.629,15.572C92.989,15.944 93.169,16.472 93.169,17.156C93.169,18.056 92.779,18.776 91.999,19.316C91.219,19.856 90.157,20.126 88.813,20.126ZM100.297,7.4L102.637,7.4L102.637,18.02L109.225,18.02L109.225,20L100.297,20L100.297,7.4ZM111.073,7.4L113.413,7.4L113.413,18.02L120.001,18.02L120.001,20L111.073,20L111.073,7.4ZM127.452,20.18C126.18,20.18 125.028,19.904 123.996,19.352C122.976,18.788 122.172,18.014 121.584,17.03C121.008,16.046 120.72,14.936 120.72,13.7C120.72,12.464 121.014,11.354 121.602,10.37C122.19,9.386 122.994,8.618 124.014,8.066C125.046,7.502 126.198,7.22 127.47,7.22C128.502,7.22 129.444,7.4 130.296,7.76C131.148,8.12 131.868,8.642 132.456,9.326L130.944,10.748C130.032,9.764 128.91,9.272 127.578,9.272C126.714,9.272 125.94,9.464 125.256,9.848C124.572,10.22 124.038,10.742 123.654,11.414C123.27,12.086 123.078,12.848 123.078,13.7C123.078,14.552 123.27,15.314 123.654,15.986C124.038,16.658 124.572,17.186 125.256,17.57C125.94,17.942 126.714,18.128 127.578,18.128C128.91,18.128 130.032,17.63 130.944,16.634L132.456,18.074C131.868,18.758 131.142,19.28 130.278,19.64C129.426,20 128.484,20.18 127.452,20.18Z" style="fill:rgb(150,193,184);fill-rule:nonzero;"/>
</svg>
