<?xml version="1.0" encoding="UTF-8" standalone="no"?>
<!DOCTYPE svg PUBLIC "-//W3C//DTD SVG 1.1//EN" "http://www.w3.org/Graphics/SVG/1.1/DTD/svg11.dtd">
<svg width="100%" height="100%" viewBox="0 0 500 117" version="1.1" xmlns="http://www.w3.org/2000/svg" xmlns:xlink="http://www.w3.org/1999/xlink" xml:space="preserve" xmlns:serif="http://www.serif.com/" style="fill-rule:evenodd;clip-rule:evenodd;stroke-linejoin:round;stroke-miterlimit:2;">
    <rect x="0" y="0" width="354.167" height="116.667" style="fill:rgb(150,193,184);"/>
    <rect x="354.167" y="0" width="145.833" height="116.667" style="fill:white;"/>
    <path d="M373.823,72.156L386.908,72.156L386.908,74.252L369.141,74.252L369.141,42.458L373.823,42.458L373.823,72.156Z" style="fill:rgb(150,193,184);fill-rule:nonzero;"/>
    <path d="M404.548,74.872C402.98,74.872 401.469,74.672 400.015,74.273C398.575,73.874 397.221,73.318 395.953,72.605C394.698,71.878 393.551,71.009 392.51,69.997C391.484,68.985 390.6,67.866 389.859,66.64C389.118,65.4 388.54,64.074 388.127,62.663C387.728,61.238 387.528,59.755 387.528,58.216C387.528,56.705 387.728,55.244 388.127,53.833C388.54,52.421 389.118,51.103 389.859,49.877C390.6,48.651 391.484,47.532 392.51,46.52C393.551,45.508 394.698,44.646 395.953,43.933C397.221,43.22 398.575,42.665 400.015,42.265C401.469,41.866 402.98,41.667 404.548,41.667C406.102,41.667 407.598,41.866 409.038,42.265C410.478,42.65 411.825,43.206 413.079,43.933C414.333,44.646 415.474,45.508 416.5,46.52C417.542,47.532 418.425,48.651 419.15,49.877C419.892,51.103 420.463,52.421 420.863,53.833C421.275,55.244 421.483,56.705 421.483,58.216C421.483,59.755 421.275,61.238 420.863,62.663C420.463,64.074 419.892,65.4 419.15,66.64C418.425,67.866 417.542,68.985 416.5,69.997C415.474,71.009 414.333,71.878 413.079,72.605C411.825,73.318 410.478,73.874 409.038,74.273C407.598,74.672 406.102,74.872 404.548,74.872ZM404.548,72.798C406.486,72.798 408.197,72.42 409.679,71.665C411.176,70.909 412.43,69.876 413.443,68.564C414.455,67.253 415.217,65.713 415.73,63.946C416.258,62.164 416.521,60.254 416.521,58.216C416.521,56.192 416.265,54.296 415.752,52.528C415.238,50.761 414.476,49.228 413.464,47.931C412.466,46.634 411.219,45.615 409.722,44.874C408.225,44.118 406.501,43.741 404.548,43.741C402.567,43.741 400.828,44.118 399.331,44.874C397.848,45.615 396.601,46.634 395.589,47.931C394.591,49.228 393.836,50.761 393.323,52.528C392.824,54.296 392.575,56.192 392.575,58.216C392.575,60.254 392.831,62.164 393.344,63.946C393.857,65.713 394.613,67.253 395.61,68.564C396.623,69.876 397.877,70.909 399.374,71.665C400.87,72.42 402.595,72.798 404.548,72.798Z" style="fill:rgb(150,193,184);fill-rule:nonzero;"/>
    <path d="M430.121,57.959C430.121,60.112 430.471,62.064 431.167,63.817C431.879,65.557 432.892,67.046 434.204,68.286C435.517,69.526 437.113,70.481 438.992,71.151C440.888,71.821 443.013,72.156 445.367,72.156L450.046,72.156L450.046,53.662L454.729,53.662L454.729,74.252L443.442,74.252C441.746,74.252 440.113,74.102 438.546,73.802C436.975,73.503 435.508,73.054 434.138,72.456C432.771,71.857 431.529,71.109 430.421,70.21C429.308,69.313 428.354,68.258 427.554,67.046C426.754,65.835 426.138,64.473 425.696,62.963C425.267,61.451 425.054,59.784 425.054,57.959C425.054,56.434 425.25,54.973 425.65,53.576C426.063,52.179 426.633,50.882 427.363,49.685C428.104,48.487 428.988,47.404 430.013,46.435C431.054,45.465 432.2,44.639 433.454,43.955C434.725,43.256 436.083,42.722 437.538,42.351C438.992,41.98 440.513,41.795 442.092,41.795C444.558,41.795 446.854,42.201 448.979,43.014C451.1,43.826 452.983,44.938 454.621,46.349L453.425,47.931C452.771,47.375 452.042,46.855 451.246,46.37C450.463,45.886 449.621,45.465 448.721,45.109C447.838,44.753 446.917,44.475 445.963,44.275C445.008,44.075 444.046,43.976 443.075,43.976C441.067,43.99 439.263,44.354 437.667,45.066C436.071,45.765 434.708,46.741 433.583,47.995C432.471,49.235 431.617,50.704 431.017,52.4C430.421,54.096 430.121,55.949 430.121,57.959Z" style="fill:rgb(150,193,184);fill-rule:nonzero;"/>
    <path d="M476.175,74.872C474.608,74.872 473.096,74.672 471.642,74.273C470.204,73.874 468.85,73.318 467.579,72.605C466.325,71.878 465.179,71.009 464.138,69.997C463.113,68.985 462.229,67.866 461.488,66.64C460.746,65.4 460.167,64.074 459.754,62.663C459.354,61.238 459.154,59.755 459.154,58.216C459.154,56.705 459.354,55.244 459.754,53.833C460.167,52.421 460.746,51.103 461.487,49.877C462.229,48.651 463.112,47.532 464.137,46.52C465.179,45.508 466.325,44.646 467.579,43.933C468.85,43.22 470.204,42.665 471.642,42.265C473.096,41.866 474.608,41.667 476.175,41.667C477.729,41.667 479.225,41.866 480.667,42.265C482.104,42.65 483.45,43.206 484.704,43.933C485.962,44.646 487.1,45.508 488.129,46.52C489.167,47.532 490.05,48.651 490.779,49.877C491.521,51.103 492.092,52.421 492.488,53.833C492.904,55.244 493.108,56.705 493.108,58.216C493.108,59.755 492.904,61.238 492.488,62.663C492.092,64.074 491.521,65.4 490.779,66.64C490.05,67.866 489.167,68.985 488.129,69.997C487.1,71.009 485.962,71.878 484.704,72.605C483.45,73.318 482.104,73.874 480.667,74.273C479.225,74.672 477.729,74.872 476.175,74.872ZM476.175,72.798C478.112,72.798 479.825,72.42 481.308,71.665C482.804,70.909 484.058,69.876 485.071,68.564C486.083,67.253 486.846,65.713 487.358,63.946C487.883,62.164 488.15,60.254 488.15,58.216C488.15,56.192 487.892,54.296 487.379,52.528C486.867,50.761 486.104,49.228 485.092,47.931C484.092,46.634 482.846,45.615 481.35,44.874C479.854,44.118 478.129,43.741 476.175,43.741C474.192,43.741 472.454,44.118 470.958,44.874C469.475,45.615 468.229,46.634 467.217,47.931C466.217,49.228 465.463,50.761 464.95,52.528C464.45,54.296 464.2,56.192 464.2,58.216C464.2,60.254 464.458,62.164 464.971,63.946C465.483,65.713 466.242,67.253 467.238,68.564C468.25,69.876 469.504,70.909 471,71.665C472.496,72.42 474.221,72.798 476.175,72.798Z" style="fill:rgb(150,193,184);fill-rule:nonzero;"/>
    <path d="M25.516,65.892L25.516,74.252L20.833,74.252L20.833,42.458L28.787,42.458C31.025,42.458 32.942,42.65 34.539,43.035C36.135,43.406 37.475,43.905 38.558,44.532C39.642,45.159 40.511,45.886 41.167,46.713C41.823,47.525 42.322,48.373 42.664,49.257C43.006,50.127 43.227,51.003 43.326,51.887C43.44,52.756 43.498,53.569 43.498,54.324C43.498,55.065 43.433,55.871 43.305,56.74C43.191,57.596 42.949,58.451 42.578,59.306C42.222,60.161 41.708,60.988 41.039,61.786C40.383,62.57 39.506,63.269 38.409,63.882C37.325,64.495 35.993,64.986 34.41,65.357C32.842,65.713 30.968,65.892 28.787,65.892L25.516,65.892ZM25.516,44.553L25.516,63.796L28.146,63.796C29.728,63.796 31.16,63.618 32.443,63.262C33.726,62.905 34.817,62.335 35.715,61.551C36.627,60.767 37.325,59.77 37.81,58.558C38.295,57.332 38.537,55.85 38.537,54.11C38.537,52.785 38.409,51.63 38.152,50.647C37.91,49.649 37.561,48.801 37.104,48.103C36.648,47.39 36.1,46.805 35.458,46.349C34.831,45.893 34.132,45.53 33.363,45.259C32.607,44.988 31.795,44.803 30.925,44.703C30.056,44.603 29.158,44.553 28.231,44.553L25.516,44.553Z" style="fill:white;fill-rule:nonzero;"/>
    <path d="M53.482,72.156L66.568,72.156L66.568,74.252L48.8,74.252L48.8,42.458L53.482,42.458L53.482,72.156Z" style="fill:white;fill-rule:nonzero;"/>
    <path d="M95.924,74.252L90.985,74.252L89.232,70.125L71.849,70.125L70.138,74.252L67.551,74.252L79.204,46.542L77.494,42.458L82.497,42.458L95.924,74.252ZM72.725,68.03L88.355,68.03L80.465,49.556L72.725,68.03Z" style="fill:white;fill-rule:nonzero;"/>
    <path d="M113.885,41.795C116.365,41.795 118.66,42.201 120.769,43.014C122.893,43.812 124.775,44.924 126.414,46.349L125.217,47.931C124.561,47.375 123.834,46.855 123.035,46.37C122.238,45.886 121.396,45.472 120.513,45.13C119.629,44.774 118.71,44.496 117.755,44.297C116.8,44.083 115.837,43.976 114.868,43.976C112.787,43.976 110.941,44.354 109.33,45.109C107.72,45.865 106.365,46.898 105.268,48.209C104.17,49.521 103.336,51.053 102.766,52.806C102.196,54.56 101.911,56.441 101.911,58.451C101.911,60.418 102.189,62.271 102.745,64.01C103.315,65.749 104.142,67.274 105.225,68.586C106.322,69.897 107.677,70.937 109.288,71.707C110.898,72.463 112.744,72.84 114.825,72.84C115.823,72.84 116.835,72.741 117.861,72.541C118.887,72.342 119.878,72.05 120.833,71.665C121.788,71.28 122.686,70.809 123.527,70.253C124.382,69.698 125.138,69.063 125.794,68.35L127.013,69.911C125.33,71.508 123.378,72.755 121.154,73.653C118.93,74.551 116.507,75 113.885,75C112.302,75 110.784,74.8 109.33,74.401C107.876,74.017 106.515,73.46 105.246,72.734C103.992,72.007 102.845,71.144 101.804,70.147C100.778,69.135 99.894,68.015 99.153,66.79C98.426,65.564 97.856,64.253 97.442,62.855C97.043,61.444 96.844,59.976 96.844,58.451C96.844,56.926 97.043,55.45 97.442,54.025C97.856,52.6 98.426,51.274 99.153,50.048C99.894,48.808 100.778,47.682 101.804,46.67C102.845,45.658 103.992,44.795 105.246,44.083C106.515,43.356 107.876,42.793 109.33,42.394C110.784,41.995 112.302,41.795 113.885,41.795Z" style="fill:white;fill-rule:nonzero;"/>
    <path d="M151.729,42.458L151.729,44.553L136.955,44.553L136.955,54.196L151.28,54.196L151.28,56.291L136.955,56.291L136.955,72.156L151.729,72.156L151.729,74.252L132.272,74.252L132.272,42.458L151.729,42.458Z" style="fill:white;fill-rule:nonzero;"/>
    <path d="M181.855,74.252L177.173,74.252L177.173,56.291L162.826,56.291L162.826,74.252L158.144,74.252L158.144,42.458L162.826,42.458L162.826,54.196L177.173,54.196L177.173,42.458L181.855,42.458L181.855,74.252Z" style="fill:white;fill-rule:nonzero;"/>
    <path d="M204.712,74.872C203.144,74.872 201.633,74.672 200.179,74.273C198.74,73.874 197.385,73.318 196.117,72.605C194.862,71.878 193.715,71.009 192.674,69.997C191.648,68.985 190.764,67.866 190.023,66.64C189.282,65.4 188.705,64.074 188.291,62.663C187.892,61.238 187.692,59.755 187.692,58.216C187.692,56.705 187.892,55.244 188.291,53.833C188.705,52.421 189.282,51.103 190.023,49.877C190.764,48.651 191.648,47.532 192.674,46.52C193.715,45.508 194.862,44.646 196.117,43.933C197.385,43.22 198.74,42.665 200.179,42.265C201.633,41.866 203.144,41.667 204.712,41.667C206.265,41.667 207.762,41.866 209.202,42.265C210.642,42.65 211.989,43.206 213.243,43.933C214.497,44.646 215.637,45.508 216.664,46.52C217.705,47.532 218.588,48.651 219.315,49.877C220.057,51.103 220.627,52.421 221.026,53.833C221.439,55.244 221.646,56.705 221.646,58.216C221.646,59.755 221.439,61.238 221.026,62.663C220.627,64.074 220.057,65.4 219.315,66.64C218.588,67.866 217.705,68.985 216.664,69.997C215.638,71.009 214.497,71.878 213.243,72.605C211.989,73.318 210.642,73.874 209.202,74.273C207.762,74.672 206.265,74.872 204.712,74.872ZM204.712,72.798C206.65,72.798 208.361,72.42 209.843,71.665C211.34,70.909 212.595,69.876 213.607,68.564C214.618,67.253 215.381,65.713 215.894,63.946C216.422,62.164 216.685,60.254 216.685,58.216C216.685,56.192 216.429,54.296 215.916,52.528C215.402,50.761 214.64,49.228 213.628,47.931C212.63,46.634 211.383,45.615 209.886,44.874C208.39,44.118 206.665,43.741 204.712,43.741C202.73,43.741 200.992,44.118 199.495,44.874C198.013,45.615 196.765,46.634 195.753,47.931C194.755,49.228 194,50.761 193.487,52.528C192.988,54.296 192.738,56.192 192.738,58.216C192.738,60.254 192.995,62.164 193.508,63.946C194.021,65.713 194.777,67.253 195.775,68.564C196.787,69.876 198.041,70.909 199.537,71.665C201.034,72.42 202.759,72.798 204.712,72.798Z" style="fill:white;fill-rule:nonzero;"/>
    <path d="M231.973,72.156L245.058,72.156L245.058,74.252L227.29,74.252L227.29,42.458L231.973,42.458L231.973,72.156Z" style="fill:white;fill-rule:nonzero;"/>
    <path d="M272.661,58.408C272.661,56.47 272.44,54.78 271.999,53.341C271.557,51.901 270.958,50.668 270.203,49.642C269.447,48.615 268.563,47.775 267.551,47.119C266.539,46.449 265.47,45.929 264.344,45.558C263.218,45.173 262.056,44.91 260.859,44.767C259.676,44.625 258.521,44.553 257.395,44.553L254.722,44.553L254.722,72.156L257.395,72.156C258.521,72.156 259.676,72.085 260.859,71.943C262.056,71.8 263.218,71.543 264.344,71.173C265.47,70.788 266.539,70.267 267.551,69.612C268.563,68.956 269.447,68.122 270.202,67.11C270.958,66.084 271.557,64.858 271.999,63.433C272.44,62.007 272.661,60.332 272.661,58.408ZM277.622,58.322C277.622,60.546 277.223,62.627 276.425,64.566C275.64,66.49 274.472,68.172 272.918,69.612C271.364,71.052 269.433,72.185 267.124,73.012C264.829,73.838 262.17,74.252 259.148,74.252L250.04,74.252L250.04,42.458L259.148,42.458C262.17,42.458 264.829,42.871 267.124,43.698C269.433,44.525 271.364,45.658 272.918,47.097C274.472,48.523 275.64,50.205 276.425,52.143C277.223,54.068 277.622,56.127 277.622,58.322Z" style="fill:white;fill-rule:nonzero;"/>
    <path d="M303.065,42.458L303.065,44.553L288.291,44.553L288.291,54.196L302.617,54.196L302.617,56.291L288.291,56.291L288.291,72.156L303.065,72.156L303.065,74.252L283.609,74.252L283.609,42.458L303.065,42.458Z" style="fill:white;fill-rule:nonzero;"/>
    <path d="M319.465,42.458C321.275,42.458 322.836,42.622 324.148,42.95C325.473,43.263 326.592,43.684 327.504,44.211C328.431,44.738 329.172,45.344 329.728,46.028C330.298,46.713 330.733,47.418 331.032,48.145C331.346,48.872 331.553,49.599 331.652,50.326C331.766,51.039 331.823,51.702 331.823,52.315C331.823,53.098 331.695,53.975 331.438,54.945C331.196,55.914 330.747,56.855 330.091,57.767C329.45,58.679 328.566,59.506 327.44,60.247C326.314,60.974 324.882,61.494 323.142,61.808L332.336,74.252L326.606,74.252L317.626,62.128L314.163,62.128L314.163,74.252L309.48,74.252L309.48,42.458L319.465,42.458ZM314.163,44.553L314.163,60.012L316.835,60.012C318.36,60.012 319.736,59.876 320.962,59.605C322.202,59.32 323.257,58.871 324.126,58.258C325.01,57.631 325.687,56.826 326.157,55.843C326.628,54.845 326.863,53.64 326.863,52.229C326.863,50.632 326.578,49.335 326.007,48.337C325.438,47.325 324.682,46.542 323.741,45.986C322.815,45.43 321.753,45.052 320.555,44.852C319.358,44.653 318.132,44.553 316.878,44.553L314.163,44.553Z" style="fill:white;fill-rule:nonzero;"/>
</svg>
